<svg width="37" height="37" viewBox="0 0 37 37" fill="none" xmlns="http://www.w3.org/2000/svg">
<path d="M31.5225 31.5302H26.0434V22.9446C26.0434 20.8973 26.0017 18.2626 23.1882 18.2626C20.3315 18.2626 19.8952 20.4903 19.8952 22.7935V31.5302H14.4161V13.875H19.6794V16.2815H19.7503C20.4857 14.894 22.274 13.4295 24.9457 13.4295C30.4972 13.4295 31.524 17.0832 31.524 21.8393V31.5302H31.5225ZM8.22787 11.4592C7.80989 11.4594 7.39598 11.3772 7.00981 11.2172C6.62365 11.0573 6.27282 10.8227 5.97741 10.527C5.68199 10.2313 5.44779 9.88028 5.28822 9.49396C5.12864 9.10764 5.04681 8.69365 5.04742 8.27567C5.04772 7.64633 5.23464 7.03121 5.58454 6.5081C5.93443 5.98499 6.43159 5.57739 7.01314 5.33683C7.59469 5.09628 8.23452 5.03357 8.85171 5.15665C9.46889 5.27973 10.0357 5.58306 10.4805 6.02829C10.9253 6.47351 11.2281 7.04064 11.3506 7.65794C11.4731 8.27525 11.4097 8.91501 11.1686 9.49633C10.9275 10.0776 10.5194 10.5744 9.99596 10.9238C9.47251 11.2732 8.85721 11.4595 8.22787 11.4592ZM10.9751 31.5302H5.48063V13.875H10.9751V31.5302ZM34.2635 0H2.73029C1.221 0 0 1.19325 0 2.66554V34.3345C0 35.8083 1.221 37 2.73029 37H34.2589C35.7667 37 37 35.8083 37 34.3345V2.66554C37 1.19325 35.7667 0 34.2589 0H34.2635Z" fill="#1F1F1F"/>
</svg>
