<svg width="129" height="70" viewBox="0 0 129 70" fill="none" xmlns="http://www.w3.org/2000/svg">
<path d="M14.8434 26.5886L9.43882 16.7829H8.62814V26.5886H1.06177V0H12.9904C15.1779 0 17.0309 0.377143 18.5494 1.13143C20.0678 1.86057 21.213 2.87886 21.9851 4.18629C22.7572 5.46857 23.1432 6.91429 23.1432 8.52343C23.1432 10.3337 22.6285 11.9303 21.5991 13.3131C20.5954 14.6709 19.1155 15.6389 17.1596 16.2171L23.2976 26.5886H14.8434ZM8.62814 11.7291H12.3727C13.4022 11.7291 14.1742 11.4903 14.689 11.0126C15.2037 10.5349 15.461 9.84343 15.461 8.93828C15.461 8.08343 15.1908 7.41714 14.6504 6.93943C14.1356 6.43657 13.3764 6.18514 12.3727 6.18514H8.62814V11.7291ZM58.734 12.936C60.3297 13.288 61.5907 14.0674 62.5172 15.2743C63.4695 16.456 63.9456 17.8137 63.9456 19.3474C63.9456 21.6103 63.1478 23.3829 61.5521 24.6651C59.9565 25.9474 57.7175 26.5886 54.835 26.5886H41.3623V0H54.4104C57.1899 0 59.3646 0.603429 60.9345 1.81029C62.5301 3.01714 63.3279 4.71429 63.3279 6.90171C63.3279 8.46057 62.9033 9.768 62.054 10.824C61.2304 11.8549 60.1238 12.5589 58.734 12.936ZM48.9286 10.56H52.7504C54.6549 10.56 55.6071 9.79314 55.6071 8.25943C55.6071 6.67543 54.6549 5.88343 52.7504 5.88343H48.9286V10.56ZM53.3295 20.6297C55.234 20.6297 56.1862 19.8503 56.1862 18.2914C56.1862 17.4869 55.9288 16.8709 55.4141 16.4434C54.9251 16.016 54.2174 15.8023 53.2909 15.8023H48.9286V20.6297H53.3295Z" fill="#2EAFF8"/>
<path d="M72.1252 22.1006C70.7869 22.1006 69.5774 21.8072 68.4964 21.2206C67.4155 20.6171 66.5662 19.7791 65.9486 18.7063C65.3309 17.6168 65.0221 16.3596 65.0221 14.9348C65.0221 13.5268 65.3394 12.2781 65.9743 11.1886C66.6093 10.0991 67.4755 9.26093 68.5737 8.67428C69.6719 8.08763 70.8983 7.79428 72.2539 7.79428C73.6095 7.79428 74.8359 8.08763 75.9341 8.67428C77.0323 9.26093 77.8985 10.0991 78.5335 11.1886C79.1684 12.2781 79.4857 13.5268 79.4857 14.9348C79.4857 16.3429 79.1596 17.5916 78.5077 18.6811C77.8559 19.7706 76.9636 20.6171 75.8312 21.2206C74.7161 21.8072 73.4808 22.1006 72.1252 22.1006ZM72.1252 19.6114C72.88 19.6114 73.5837 19.4354 74.2356 19.0834C74.9047 18.7314 75.4452 18.2034 75.8569 17.4994C76.2687 16.7954 76.4746 15.9406 76.4746 14.9348C76.4746 13.9291 76.2772 13.0826 75.8827 12.3954C75.4882 11.6914 74.9646 11.1634 74.3128 10.8114C73.6609 10.4594 72.9572 10.2834 72.2024 10.2834C71.4476 10.2834 70.7439 10.4594 70.0921 10.8114C69.4571 11.1634 68.9513 11.6914 68.5737 12.3954C68.1961 13.0826 68.0075 13.9291 68.0075 14.9348C68.0075 16.4266 68.3935 17.5832 69.1656 18.4046C69.9549 19.2091 70.9414 19.6114 72.1252 19.6114ZM74.9047 4.07313L69.2171 6.81371V4.70171L74.9047 1.63428V4.07313ZM85.8091 10.3589V18.0274C85.8091 18.5471 85.9289 18.9242 86.1694 19.1588C86.4268 19.3768 86.8554 19.4857 87.4562 19.4857H89.2577V21.8743H86.9415C85.6201 21.8743 84.608 21.5726 83.9047 20.9691C83.2009 20.3657 82.8495 19.3851 82.8495 18.0274V10.3589H81.1766V8.02056H82.8495V4.57599H85.8091V8.02056H89.2577V10.3589H85.8091ZM93.4543 6.18513C92.9223 6.18513 92.4763 6.00914 92.116 5.65714C91.7557 5.30514 91.5756 4.86934 91.5756 4.34971C91.5756 3.83007 91.7557 3.39428 92.116 3.04228C92.4763 2.69028 92.9223 2.51428 93.4543 2.51428C93.969 2.51428 94.4065 2.69028 94.7668 3.04228C95.1271 3.39428 95.3073 3.83007 95.3073 4.34971C95.3073 4.86934 95.1271 5.30514 94.7668 5.65714C94.4065 6.00914 93.969 6.18513 93.4543 6.18513ZM94.8955 8.02056V21.8743H91.9616V8.02056H94.8955ZM97.7695 14.9348C97.7695 13.5101 98.061 12.2613 98.6445 11.1886C99.2449 10.0991 100.068 9.26093 101.115 8.67428C102.162 8.08763 103.363 7.79428 104.718 7.79428C106.434 7.79428 107.85 8.19656 108.965 9.00113C110.097 9.78893 110.861 10.9204 111.255 12.3954H108.09C107.832 11.7082 107.42 11.1718 106.854 10.7863C106.288 10.4008 105.576 10.208 104.718 10.208C103.517 10.208 102.556 10.6271 101.836 11.4651C101.132 12.2865 100.781 13.4431 100.781 14.9348C100.781 16.4266 101.132 17.5916 101.836 18.4297C102.556 19.2678 103.517 19.6869 104.718 19.6869C106.417 19.6869 107.541 18.9577 108.09 17.4994H111.255C110.843 18.9074 110.071 20.0305 108.939 20.8686C107.807 21.6899 106.399 22.1006 104.718 22.1006C103.363 22.1006 102.162 21.8072 101.115 21.2206C100.068 20.6171 99.2449 19.7791 98.6445 18.7063C98.061 17.6168 97.7695 16.3596 97.7695 14.9348ZM113.201 14.8846C113.201 13.4933 113.493 12.2613 114.076 11.1886C114.676 10.1158 115.483 9.28608 116.495 8.69942C117.525 8.09599 118.657 7.79428 119.892 7.79428C121.007 7.79428 121.977 8.0122 122.801 8.44799C123.641 8.86705 124.311 9.39505 124.808 10.032V8.02056H127.768V21.8743H124.808V19.8126C124.311 20.4663 123.633 21.0111 122.775 21.4469C121.917 21.8826 120.939 22.1006 119.841 22.1006C118.623 22.1006 117.507 21.7989 116.495 21.1954C115.483 20.5752 114.676 19.7204 114.076 18.6309C113.493 17.5246 113.201 16.2758 113.201 14.8846ZM124.808 14.9348C124.808 13.9794 124.602 13.1497 124.19 12.4457C123.796 11.7417 123.272 11.2053 122.62 10.8366C121.969 10.4678 121.265 10.2834 120.51 10.2834C119.755 10.2834 119.052 10.4678 118.4 10.8366C117.748 11.1886 117.216 11.7166 116.804 12.4206C116.41 13.1078 116.212 13.9291 116.212 14.8846C116.212 15.84 116.41 16.6781 116.804 17.3989C117.216 18.1196 117.748 18.6728 118.4 19.0583C119.069 19.4271 119.772 19.6114 120.51 19.6114C121.265 19.6114 121.969 19.4271 122.62 19.0583C123.272 18.6895 123.796 18.1531 124.19 17.4491C124.602 16.7284 124.808 15.8903 124.808 14.9348Z" fill="#2EAFF8"/>
<path d="M31.5108 22.1005C30.1726 22.1005 28.963 21.8071 27.8821 21.2205C26.8012 20.617 25.9519 19.779 25.3342 18.7062C24.7165 17.6167 24.4077 16.3595 24.4077 14.9348C24.4077 13.5268 24.7251 12.278 25.3599 11.1885C25.9948 10.099 26.8612 9.26084 27.9593 8.67419C29.0574 8.08754 30.2841 7.79419 31.6395 7.79419C32.995 7.79419 34.2217 8.08754 35.3198 8.67419C36.4178 9.26084 37.2843 10.099 37.9191 11.1885C38.5539 12.278 38.8713 13.5268 38.8713 14.9348C38.8713 16.3428 38.5453 17.5915 37.8934 18.681C37.2414 19.7706 36.3492 20.617 35.2168 21.2205C34.1016 21.8071 32.8663 22.1005 31.5108 22.1005ZM31.5108 19.6113C32.2657 19.6113 32.9692 19.4353 33.6212 19.0833C34.2903 18.7313 34.8308 18.2033 35.2426 17.4993C35.6543 16.7953 35.8602 15.9405 35.8602 14.9348C35.8602 13.929 35.6629 13.0826 35.2683 12.3953C34.8737 11.6913 34.3504 11.1633 33.6984 10.8113C33.0464 10.4593 32.343 10.2833 31.588 10.2833C30.8331 10.2833 30.1297 10.4593 29.4777 10.8113C28.8429 11.1633 28.3368 11.6913 27.9593 12.3953C27.5818 13.0826 27.3931 13.929 27.3931 14.9348C27.3931 16.4266 27.7791 17.5831 28.5512 18.4045C29.3405 19.209 30.327 19.6113 31.5108 19.6113Z" fill="#2EAFF8"/>
<path d="M4.65178 47.5419C3.76388 47.5419 2.96607 47.391 2.25833 47.0893C1.56346 46.775 1.01657 46.3476 0.617663 45.807C0.218756 45.2539 0.012868 44.619 0 43.9024H1.87229C1.93663 44.5184 2.19399 45.0402 2.64437 45.4676C3.10762 45.8824 3.77675 46.0899 4.65178 46.0899C5.48819 46.0899 6.14446 45.8887 6.62058 45.4864C7.10956 45.0716 7.35405 44.5436 7.35405 43.9024C7.35405 43.3996 7.2125 42.991 6.92941 42.6767C6.64631 42.3624 6.29244 42.1236 5.8678 41.9601C5.44316 41.7967 4.87053 41.6207 4.14992 41.4321C3.26203 41.2059 2.54786 40.9796 2.00741 40.7533C1.47982 40.527 1.023 40.175 0.636965 39.6973C0.263794 39.207 0.0772079 38.5533 0.0772079 37.7361C0.0772079 37.0196 0.263794 36.3847 0.636965 35.8316C1.01014 35.2784 1.53129 34.851 2.20042 34.5493C2.88243 34.2476 3.66094 34.0967 4.53596 34.0967C5.79703 34.0967 6.82646 34.4047 7.62428 35.0207C8.43496 35.6367 8.89178 36.4539 8.99472 37.4721H7.06452C7.00018 36.9693 6.72995 36.5293 6.25384 36.1521C5.77772 35.7624 5.14719 35.5676 4.36225 35.5676C3.62877 35.5676 3.03041 35.7561 2.56716 36.1333C2.10391 36.4979 1.87229 37.0133 1.87229 37.6796C1.87229 38.1573 2.00741 38.547 2.27763 38.8487C2.56073 39.1504 2.90173 39.383 3.30064 39.5464C3.71241 39.6973 4.28504 39.8733 5.01851 40.0744C5.9064 40.3133 6.62058 40.5521 7.16103 40.791C7.70149 41.0173 8.16473 41.3756 8.55077 41.8659C8.93681 42.3436 9.12983 42.9973 9.12983 43.827C9.12983 44.4682 8.95611 45.0716 8.60868 45.6373C8.26124 46.203 7.74653 46.6619 7.06452 47.0139C6.38252 47.3659 5.57827 47.5419 4.65178 47.5419ZM16.3278 47.5796C15.337 47.5796 14.4362 47.3596 13.6255 46.9196C12.8277 46.4796 12.1972 45.8573 11.734 45.0527C11.2836 44.2356 11.0584 43.2927 11.0584 42.2241C11.0584 41.1681 11.29 40.2379 11.7533 39.4333C12.2294 38.6161 12.8728 37.9939 13.6835 37.5664C14.4941 37.1264 15.4013 36.9064 16.405 36.9064C17.4087 36.9064 18.3159 37.1264 19.1266 37.5664C19.9373 37.9939 20.5743 38.6099 21.0375 39.4144C21.5136 40.219 21.7517 41.1556 21.7517 42.2241C21.7517 43.2927 21.5072 44.2356 21.0182 45.0527C20.5421 45.8573 19.8923 46.4796 19.0687 46.9196C18.2451 47.3596 17.3315 47.5796 16.3278 47.5796ZM16.3278 46.071C16.9584 46.071 17.5503 45.9264 18.1036 45.6373C18.6569 45.3482 19.1009 44.9144 19.4354 44.3361C19.7829 43.7579 19.9566 43.0539 19.9566 42.2241C19.9566 41.3944 19.7893 40.6904 19.4547 40.1121C19.1202 39.5339 18.6827 39.1064 18.1422 38.8299C17.6017 38.5407 17.0163 38.3961 16.3857 38.3961C15.7423 38.3961 15.1504 38.5407 14.6099 38.8299C14.0824 39.1064 13.6577 39.5339 13.336 40.1121C13.0143 40.6904 12.8535 41.3944 12.8535 42.2241C12.8535 43.0664 13.0079 43.7767 13.3167 44.355C13.6384 44.9333 14.0631 45.367 14.5906 45.6561C15.1182 45.9327 15.6973 46.071 16.3278 46.071ZM25.8176 38.9996C26.1779 38.3836 26.7055 37.8807 27.4004 37.491C28.0952 37.1013 28.8866 36.9064 29.7745 36.9064C30.7267 36.9064 31.5825 37.1264 32.3417 37.5664C33.1009 38.0064 33.6992 38.6287 34.1367 39.4333C34.5743 40.2253 34.793 41.1493 34.793 42.2053C34.793 43.2487 34.5743 44.179 34.1367 44.9962C33.6992 45.8133 33.0944 46.4482 32.3224 46.9007C31.5631 47.3533 30.7139 47.5796 29.7745 47.5796C28.8609 47.5796 28.0566 47.3847 27.3618 46.995C26.6798 46.6053 26.165 46.1087 25.8176 45.5053V47.4099H24.0611V33.4556H25.8176V38.9996ZM32.9979 42.2053C32.9979 41.4259 32.8371 40.747 32.5154 40.1687C32.1937 39.5904 31.7562 39.1504 31.2028 38.8487C30.6624 38.547 30.064 38.3961 29.4078 38.3961C28.7644 38.3961 28.166 38.5533 27.6127 38.8676C27.0722 39.1693 26.6347 39.6156 26.3001 40.2064C25.9784 40.7847 25.8176 41.4573 25.8176 42.2241C25.8176 43.0036 25.9784 43.6887 26.3001 44.2796C26.6347 44.8579 27.0722 45.3042 27.6127 45.6184C28.166 45.9202 28.7644 46.071 29.4078 46.071C30.064 46.071 30.6624 45.9202 31.2028 45.6184C31.7562 45.3042 32.1937 44.8579 32.5154 44.2796C32.8371 43.6887 32.9979 42.9973 32.9979 42.2053ZM38.8615 38.7544C39.1705 38.1636 39.6081 37.7047 40.1742 37.3779C40.7533 37.051 41.4546 36.8876 42.2782 36.8876V38.6601H41.8149C39.8461 38.6601 38.8615 39.7036 38.8615 41.7904V47.4099H37.105V37.0761H38.8615V38.7544ZM43.6494 42.2053C43.6494 41.1493 43.8682 40.2253 44.3057 39.4333C44.7432 38.6287 45.3415 38.0064 46.1007 37.5664C46.8728 37.1264 47.7285 36.9064 48.6679 36.9064C49.5944 36.9064 50.3987 37.1013 51.0807 37.491C51.7627 37.8807 52.271 38.371 52.6055 38.9619V37.0761H54.3813V47.4099H52.6055V45.4864C52.2581 46.0899 51.7369 46.5927 51.0421 46.995C50.3601 47.3847 49.5622 47.5796 48.6486 47.5796C47.7092 47.5796 46.86 47.3533 46.1007 46.9007C45.3415 46.4482 44.7432 45.8133 44.3057 44.9962C43.8682 44.179 43.6494 43.2487 43.6494 42.2053ZM52.6055 42.2241C52.6055 41.4447 52.4447 40.7659 52.123 40.1876C51.8013 39.6093 51.3638 39.1693 50.8104 38.8676C50.27 38.5533 49.6716 38.3961 49.0154 38.3961C48.3591 38.3961 47.7607 38.547 47.2203 38.8487C46.6798 39.1504 46.2487 39.5904 45.927 40.1687C45.6053 40.747 45.4445 41.4259 45.4445 42.2053C45.4445 42.9973 45.6053 43.6887 45.927 44.2796C46.2487 44.8579 46.6798 45.3042 47.2203 45.6184C47.7607 45.9202 48.3591 46.071 49.0154 46.071C49.6716 46.071 50.27 45.9202 50.8104 45.6184C51.3638 45.3042 51.8013 44.8579 52.123 44.2796C52.4447 43.6887 52.6055 43.0036 52.6055 42.2241Z" fill="black"/>
<path d="M0.900024 64.0913C0.900024 63.0353 1.11878 62.1113 1.55629 61.3193C1.9938 60.5147 2.59216 59.8924 3.35137 59.4524C4.12345 59.0124 4.98561 58.7924 5.93784 58.7924C6.76139 58.7924 7.52704 58.981 8.23477 59.3581C8.94251 59.7227 9.48297 60.2067 9.85614 60.8101V55.3416H11.6319V69.2959H9.85614V67.3536C9.5087 67.9696 8.99399 68.4787 8.31198 68.881C7.62998 69.2707 6.83216 69.4656 5.91854 69.4656C4.97917 69.4656 4.12345 69.2393 3.35137 68.7867C2.59216 68.3341 1.9938 67.6993 1.55629 66.8821C1.11878 66.065 0.900024 65.1347 0.900024 64.0913ZM9.85614 64.1101C9.85614 63.3307 9.69529 62.6518 9.37359 62.0736C9.05189 61.4953 8.61438 61.0553 8.06106 60.7536C7.5206 60.4393 6.92224 60.2821 6.26597 60.2821C5.60971 60.2821 5.01134 60.433 4.47089 60.7347C3.93043 61.0364 3.49936 61.4764 3.17766 62.0547C2.85596 62.633 2.69511 63.3118 2.69511 64.0913C2.69511 64.8833 2.85596 65.5747 3.17766 66.1656C3.49936 66.7438 3.93043 67.1901 4.47089 67.5044C5.01134 67.8061 5.60971 67.957 6.26597 67.957C6.92224 67.957 7.5206 67.8061 8.06106 67.5044C8.61438 67.1901 9.05189 66.7438 9.37359 66.1656C9.69529 65.5747 9.85614 64.8896 9.85614 64.1101ZM15.5074 57.2838C15.1728 57.2838 14.8897 57.1707 14.6581 56.9444C14.4265 56.7181 14.3107 56.4416 14.3107 56.1147C14.3107 55.7878 14.4265 55.5113 14.6581 55.285C14.8897 55.0587 15.1728 54.9456 15.5074 54.9456C15.8291 54.9456 16.0993 55.0587 16.3181 55.285C16.5497 55.5113 16.6655 55.7878 16.6655 56.1147C16.6655 56.4416 16.5497 56.7181 16.3181 56.9444C16.0993 57.1707 15.8291 57.2838 15.5074 57.2838ZM16.3567 58.9621V69.2959H14.6002V58.9621H16.3567ZM24.5039 58.7736C25.7907 58.7736 26.833 59.157 27.6308 59.9238C28.4287 60.6781 28.8276 61.7718 28.8276 63.205V69.2959H27.0904V63.4501C27.0904 62.4193 26.8266 61.6336 26.299 61.093C25.7714 60.5398 25.0508 60.2633 24.1372 60.2633C23.2107 60.2633 22.4708 60.5461 21.9175 61.1118C21.377 61.6776 21.1068 62.501 21.1068 63.5821V69.2959H19.3503V58.9621H21.1068V60.433C21.4542 59.905 21.9239 59.4964 22.5158 59.2073C23.1206 58.9181 23.7833 58.7736 24.5039 58.7736ZM36.9469 58.7736C37.7447 58.7736 38.4653 58.9433 39.1087 59.2827C39.7521 59.6096 40.254 60.1061 40.6142 60.7724C40.9874 61.4387 41.174 62.2496 41.174 63.205V69.2959H39.4369V63.4501C39.4369 62.4193 39.1731 61.6336 38.6455 61.093C38.1179 60.5398 37.3973 60.2633 36.4837 60.2633C35.5572 60.2633 34.8172 60.5461 34.2639 61.1118C33.7235 61.6776 33.4532 62.501 33.4532 63.5821V69.2959H31.6968V55.3416H33.4532V60.433C33.8007 59.905 34.2768 59.4964 34.8816 59.2073C35.4992 58.9181 36.1877 58.7736 36.9469 58.7736ZM48.6563 69.4656C47.6655 69.4656 46.7647 69.2456 45.954 68.8056C45.1562 68.3656 44.5257 67.7433 44.0625 66.9387C43.6121 66.1216 43.3869 65.1787 43.3869 64.1101C43.3869 63.0541 43.6185 62.1238 44.0817 61.3193C44.5579 60.5021 45.2013 59.8798 46.0119 59.4524C46.8226 59.0124 47.7298 58.7924 48.7335 58.7924C49.7372 58.7924 50.6444 59.0124 51.4551 59.4524C52.2658 59.8798 52.9028 60.4958 53.366 61.3004C53.8421 62.105 54.0802 63.0416 54.0802 64.1101C54.0802 65.1787 53.8357 66.1216 53.3467 66.9387C52.8706 67.7433 52.2207 68.3656 51.3972 68.8056C50.5736 69.2456 49.66 69.4656 48.6563 69.4656ZM48.6563 67.957C49.2868 67.957 49.8788 67.8124 50.4321 67.5233C50.9854 67.2341 51.4294 66.8004 51.7639 66.2221C52.1114 65.6438 52.2851 64.9398 52.2851 64.1101C52.2851 63.2804 52.1178 62.5764 51.7832 61.9981C51.4487 61.4198 51.0112 60.9924 50.4707 60.7158C49.9302 60.4267 49.3448 60.2821 48.7142 60.2821C48.0708 60.2821 47.4789 60.4267 46.9384 60.7158C46.4109 60.9924 45.9862 61.4198 45.6645 61.9981C45.3428 62.5764 45.182 63.2804 45.182 64.1101C45.182 64.9524 45.3364 65.6627 45.6452 66.241C45.9669 66.8193 46.3916 67.253 46.9191 67.5421C47.4467 67.8187 48.0258 67.957 48.6563 67.957ZM65.7241 56.1524C67.191 56.1524 68.4585 56.4227 69.5266 56.9633C70.6075 57.4913 71.431 58.2518 71.9972 59.245C72.5763 60.2381 72.8658 61.4073 72.8658 62.7524C72.8658 64.0976 72.5763 65.2667 71.9972 66.2599C71.431 67.2404 70.6075 67.9947 69.5266 68.5227C68.4585 69.0381 67.191 69.2959 65.7241 69.2959H61.5356V56.1524H65.7241ZM65.7241 67.8816C67.4613 67.8816 68.7867 67.4353 69.7003 66.5427C70.6139 65.6376 71.0707 64.3741 71.0707 62.7524C71.0707 61.1181 70.6075 59.8421 69.681 58.9244C68.7674 58.0067 67.4484 57.5478 65.7241 57.5478H63.292V67.8816H65.7241ZM82.7878 56.1524V57.5478H76.9393V61.9793H81.6876V63.3747H76.9393V69.2959H75.1829V56.1524H82.7878Z" fill="black"/>
<path d="M76.5624 48.3936C74.3619 48.3936 72.5669 47.9316 71.1771 47.0076C69.8067 46.0647 69.1215 44.7353 69.1215 43.0193C69.1215 42.8496 69.1408 42.595 69.1794 42.2556H74.333C74.2751 42.9721 74.4488 43.5379 74.8541 43.9527C75.2595 44.3676 75.8772 44.575 76.7071 44.575C77.4599 44.575 78.0486 44.4147 78.4733 44.0941C78.9172 43.7736 79.1392 43.321 79.1392 42.7364C79.1392 42.133 78.8593 41.6427 78.2995 41.2656C77.7591 40.8884 76.9098 40.4641 75.7517 39.9927C74.6322 39.5401 73.7153 39.1159 73.0012 38.7199C72.3063 38.305 71.6983 37.7487 71.1771 37.051C70.656 36.3533 70.3954 35.4764 70.3954 34.4204C70.3761 33.1193 70.7042 31.9879 71.3798 31.0261C72.0554 30.0644 72.9915 29.329 74.1882 28.8199C75.3849 28.3107 76.7554 28.0562 78.2995 28.0562C79.6893 28.0562 80.9246 28.273 82.0055 28.7067C83.0864 29.1216 83.9261 29.7344 84.5244 30.5453C85.1228 31.3373 85.422 32.2802 85.422 33.3739C85.422 33.6567 85.4123 33.8642 85.393 33.9962H80.1236C80.1429 33.9207 80.1525 33.8076 80.1525 33.6567C80.1525 33.1287 79.9595 32.7044 79.5735 32.3839C79.2067 32.0444 78.6952 31.8747 78.039 31.8747C77.3441 31.8747 76.7747 32.0444 76.3307 32.3839C75.9061 32.7044 75.6938 33.1476 75.6938 33.7133C75.6938 34.279 75.964 34.7599 76.5045 35.1559C77.0449 35.533 77.8846 35.9761 79.0234 36.4853C80.1622 36.9944 81.0887 37.4659 81.8029 37.8996C82.5363 38.3333 83.1636 38.9179 83.6848 39.6533C84.2059 40.3699 84.4665 41.2561 84.4665 42.3121C84.4665 43.4813 84.148 44.5279 83.5111 45.4519C82.8741 46.3759 81.9573 47.1019 80.7606 47.6299C79.5638 48.139 78.1644 48.3936 76.5624 48.3936ZM94.3415 32.1576L93.6177 36.2873H100.248L99.582 39.9361H92.9518L92.1411 44.377H99.6399L98.945 48.1956H86.4952L90.0854 28.339H102.535L101.84 32.1576H94.3415ZM110.237 48.3936C108.037 48.3936 106.242 47.9316 104.852 47.0076C103.481 46.0647 102.796 44.7353 102.796 43.0193C102.796 42.8496 102.815 42.595 102.854 42.2556H108.008C107.95 42.9721 108.124 43.5379 108.529 43.9527C108.934 44.3676 109.552 44.575 110.382 44.575C111.135 44.575 111.723 44.4147 112.148 44.0941C112.592 43.7736 112.814 43.321 112.814 42.7364C112.814 42.133 112.534 41.6427 111.974 41.2656C111.434 40.8884 110.585 40.4641 109.426 39.9927C108.307 39.5401 107.39 39.1159 106.676 38.7199C105.981 38.305 105.373 37.7487 104.852 37.051C104.331 36.3533 104.07 35.4764 104.07 34.4204C104.051 33.1193 104.379 31.9879 105.055 31.0261C105.73 30.0644 106.666 29.329 107.863 28.8199C109.06 28.3107 110.43 28.0562 111.974 28.0562C113.364 28.0562 114.599 28.273 115.68 28.7067C116.761 29.1216 117.601 29.7344 118.199 30.5453C118.798 31.3373 119.097 32.2802 119.097 33.3739C119.097 33.6567 119.087 33.8642 119.068 33.9962H113.798C113.818 33.9207 113.827 33.8076 113.827 33.6567C113.827 33.1287 113.634 32.7044 113.248 32.3839C112.881 32.0444 112.37 31.8747 111.714 31.8747C111.019 31.8747 110.449 32.0444 110.005 32.3839C109.581 32.7044 109.368 33.1476 109.368 33.7133C109.368 34.279 109.639 34.7599 110.179 35.1559C110.72 35.533 111.559 35.9761 112.698 36.4853C113.837 36.9944 114.763 37.4659 115.478 37.8996C116.211 38.3333 116.838 38.9179 117.36 39.6533C117.881 40.3699 118.141 41.2561 118.141 42.3121C118.141 43.4813 117.823 44.5279 117.186 45.4519C116.549 46.3759 115.632 47.1019 114.435 47.6299C113.239 48.139 111.839 48.3936 110.237 48.3936ZM128.711 28.339L125.121 48.1956H120.17L123.76 28.339H128.711Z" fill="#04D361"/>
</svg>
