<svg width="157" height="81" viewBox="0 0 157 81" fill="none" xmlns="http://www.w3.org/2000/svg">
<path d="M65.5156 66.6258L64.0276 74.9898H62.9356L64.4236 66.6258H65.5156ZM72.4647 74.9898H71.3727L68.1687 68.3298L66.9807 74.9898H65.8887L67.3767 66.6138H68.4687L71.6847 73.2618L72.8607 66.6138H73.9527L72.4647 74.9898ZM80.9502 66.6258L80.7942 67.4778H78.5142L77.1942 74.9898H76.1022L77.4222 67.4778H75.1422L75.2982 66.6258H80.9502ZM83.2424 67.4778L82.7384 70.3458H85.7744L85.6304 71.1858H82.5944L82.0664 74.1258H85.4744L85.3184 74.9898H80.8184L82.3064 66.6138H86.7944L86.6384 67.4778H83.2424ZM91.1468 66.6258C91.9788 66.6258 92.6068 66.8058 93.0308 67.1658C93.4548 67.5258 93.6668 68.0058 93.6668 68.6058C93.6668 68.7018 93.6508 68.8618 93.6188 69.0858C93.5148 69.6618 93.2588 70.1698 92.8508 70.6098C92.4428 71.0498 91.8948 71.3418 91.2068 71.4858L92.6828 74.9898H91.3748L89.9828 71.5698H88.6748L88.0628 74.9898H86.9708L88.4588 66.6258H91.1468ZM92.4908 69.0858C92.5148 68.9418 92.5268 68.8098 92.5268 68.6898C92.5268 68.3058 92.3988 68.0098 92.1428 67.8018C91.8948 67.5938 91.5108 67.4898 90.9908 67.4898H89.3948L88.8308 70.6938H90.4388C91.0308 70.6938 91.4988 70.5498 91.8428 70.2618C92.1868 69.9658 92.4028 69.5738 92.4908 69.0858ZM94.6075 70.8018C94.7515 69.9858 95.0635 69.2538 95.5435 68.6058C96.0315 67.9498 96.6235 67.4378 97.3195 67.0698C98.0235 66.7018 98.7595 66.5178 99.5275 66.5178C100.44 66.5178 101.196 66.7378 101.796 67.1778C102.404 67.6178 102.796 68.2418 102.972 69.0498H101.664C101.52 68.5618 101.252 68.1858 100.86 67.9218C100.468 67.6498 99.9675 67.5138 99.3595 67.5138C98.7755 67.5138 98.2275 67.6498 97.7155 67.9218C97.2115 68.1858 96.7835 68.5698 96.4315 69.0738C96.0795 69.5698 95.8435 70.1458 95.7235 70.8018C95.6835 71.0098 95.6635 71.2498 95.6635 71.5218C95.6635 72.3058 95.8915 72.9298 96.3475 73.3938C96.8115 73.8498 97.4275 74.0778 98.1955 74.0778C98.8035 74.0778 99.3515 73.9458 99.8395 73.6818C100.328 73.4178 100.728 73.0418 101.04 72.5538H102.348C101.892 73.3538 101.284 73.9738 100.524 74.4138C99.7715 74.8458 98.9395 75.0618 98.0275 75.0618C97.3475 75.0618 96.7435 74.9218 96.2155 74.6418C95.6875 74.3538 95.2755 73.9538 94.9795 73.4418C94.6835 72.9218 94.5355 72.3258 94.5355 71.6538C94.5355 71.3738 94.5595 71.0898 94.6075 70.8018ZM104.789 74.1498H107.717L107.561 74.9898H103.541L105.029 66.6258H106.121L104.789 74.1498ZM114.001 73.1298H110.341L109.345 74.9898H108.193L112.681 66.6738H113.941L115.489 74.9898H114.337L114.001 73.1298ZM113.845 72.2778L113.077 68.0058L110.797 72.2778H113.845ZM119.663 75.0738C118.887 75.0738 118.255 74.8898 117.767 74.5218C117.287 74.1458 117.047 73.6458 117.047 73.0218C117.047 72.9018 117.051 72.8138 117.059 72.7578H118.139C118.115 73.1498 118.235 73.4858 118.499 73.7658C118.763 74.0458 119.167 74.1858 119.711 74.1858C120.255 74.1858 120.687 74.0618 121.007 73.8138C121.327 73.5658 121.487 73.2178 121.487 72.7698C121.487 72.4978 121.407 72.2698 121.247 72.0858C121.095 71.8938 120.903 71.7378 120.671 71.6178C120.447 71.4898 120.139 71.3498 119.747 71.1978C119.267 71.0058 118.879 70.8258 118.583 70.6578C118.295 70.4898 118.051 70.2618 117.851 69.9738C117.651 69.6858 117.559 69.3218 117.575 68.8818C117.575 68.4178 117.699 68.0058 117.947 67.6458C118.195 67.2858 118.535 67.0098 118.967 66.8178C119.407 66.6178 119.907 66.5178 120.467 66.5178C121.011 66.5178 121.479 66.6098 121.871 66.7938C122.271 66.9778 122.571 67.2338 122.771 67.5618C122.971 67.8898 123.059 68.2578 123.035 68.6658H121.895C121.911 68.4578 121.863 68.2578 121.751 68.0658C121.647 67.8738 121.479 67.7178 121.247 67.5978C121.023 67.4778 120.743 67.4178 120.407 67.4178C119.887 67.4178 119.467 67.5418 119.147 67.7898C118.835 68.0298 118.679 68.3618 118.679 68.7858C118.679 69.0338 118.751 69.2498 118.895 69.4338C119.047 69.6098 119.235 69.7618 119.459 69.8898C119.683 70.0098 119.991 70.1538 120.383 70.3218C120.855 70.5218 121.239 70.7098 121.535 70.8858C121.839 71.0538 122.095 71.2818 122.303 71.5698C122.511 71.8578 122.615 72.2178 122.615 72.6498C122.615 73.1138 122.495 73.5298 122.255 73.8978C122.015 74.2578 121.671 74.5458 121.223 74.7618C120.775 74.9698 120.255 75.0738 119.663 75.0738ZM126.647 75.0738C125.871 75.0738 125.239 74.8898 124.751 74.5218C124.271 74.1458 124.031 73.6458 124.031 73.0218C124.031 72.9018 124.035 72.8138 124.043 72.7578H125.123C125.099 73.1498 125.219 73.4858 125.483 73.7658C125.747 74.0458 126.151 74.1858 126.695 74.1858C127.239 74.1858 127.671 74.0618 127.991 73.8138C128.311 73.5658 128.471 73.2178 128.471 72.7698C128.471 72.4978 128.391 72.2698 128.231 72.0858C128.079 71.8938 127.887 71.7378 127.655 71.6178C127.431 71.4898 127.123 71.3498 126.731 71.1978C126.251 71.0058 125.863 70.8258 125.567 70.6578C125.279 70.4898 125.035 70.2618 124.835 69.9738C124.635 69.6858 124.543 69.3218 124.559 68.8818C124.559 68.4178 124.683 68.0058 124.931 67.6458C125.179 67.2858 125.519 67.0098 125.951 66.8178C126.391 66.6178 126.891 66.5178 127.451 66.5178C127.995 66.5178 128.463 66.6098 128.855 66.7938C129.255 66.9778 129.555 67.2338 129.755 67.5618C129.955 67.8898 130.043 68.2578 130.019 68.6658H128.879C128.895 68.4578 128.847 68.2578 128.735 68.0658C128.631 67.8738 128.463 67.7178 128.231 67.5978C128.007 67.4778 127.727 67.4178 127.391 67.4178C126.871 67.4178 126.451 67.5418 126.131 67.7898C125.819 68.0298 125.663 68.3618 125.663 68.7858C125.663 69.0338 125.735 69.2498 125.879 69.4338C126.031 69.6098 126.219 69.7618 126.443 69.8898C126.667 70.0098 126.975 70.1538 127.367 70.3218C127.839 70.5218 128.223 70.7098 128.519 70.8858C128.823 71.0538 129.079 71.2818 129.287 71.5698C129.495 71.8578 129.599 72.2178 129.599 72.6498C129.599 73.1138 129.479 73.5298 129.239 73.8978C128.999 74.2578 128.655 74.5458 128.207 74.7618C127.759 74.9698 127.239 75.0738 126.647 75.0738Z" fill="#9B51E0"/>
<path d="M14.256 53.336C10.352 53.336 7.2 52.536 4.8 50.936C2.432 49.304 1.248 46.936 1.248 43.832C1.248 43.576 1.28 43.128 1.344 42.488H11.28C11.184 43.576 11.408 44.424 11.952 45.032C12.496 45.64 13.328 45.944 14.448 45.944C15.376 45.944 16.112 45.736 16.656 45.32C17.232 44.904 17.52 44.312 17.52 43.544C17.52 42.648 17.104 41.912 16.272 41.336C15.472 40.76 14.16 40.088 12.336 39.32C10.512 38.552 9.008 37.832 7.824 37.16C6.64 36.456 5.616 35.512 4.752 34.328C3.888 33.112 3.456 31.608 3.456 29.816C3.456 27.48 4.032 25.48 5.184 23.816C6.336 22.12 7.936 20.84 9.984 19.976C12.064 19.08 14.432 18.632 17.088 18.632C19.488 18.632 21.616 19.016 23.472 19.784C25.328 20.52 26.768 21.592 27.792 23C28.848 24.408 29.376 26.072 29.376 27.992C29.376 28.504 29.36 28.888 29.328 29.144H19.2C19.232 28.984 19.248 28.76 19.248 28.472C19.248 27.704 19.008 27.112 18.528 26.696C18.048 26.248 17.392 26.024 16.56 26.024C15.696 26.024 14.992 26.248 14.448 26.696C13.936 27.112 13.68 27.704 13.68 28.472C13.68 29.304 14.08 30.024 14.88 30.632C15.712 31.208 16.992 31.896 18.72 32.696C20.576 33.56 22.096 34.376 23.28 35.144C24.496 35.88 25.536 36.872 26.4 38.12C27.264 39.368 27.696 40.904 27.696 42.728C27.696 44.744 27.152 46.568 26.064 48.2C24.976 49.8 23.424 51.064 21.408 51.992C19.392 52.888 17.008 53.336 14.256 53.336ZM44.6801 26.6L43.7201 32.216H54.5201L53.2241 39.368H42.4241L41.3201 45.512H53.5601L52.2641 53H30.5681L36.5681 19.16H58.2161L56.9201 26.6H44.6801ZM70.881 53.336C66.977 53.336 63.825 52.536 61.425 50.936C59.057 49.304 57.873 46.936 57.873 43.832C57.873 43.576 57.905 43.128 57.969 42.488H67.905C67.809 43.576 68.033 44.424 68.577 45.032C69.121 45.64 69.953 45.944 71.073 45.944C72.001 45.944 72.737 45.736 73.281 45.32C73.857 44.904 74.145 44.312 74.145 43.544C74.145 42.648 73.729 41.912 72.897 41.336C72.097 40.76 70.785 40.088 68.961 39.32C67.137 38.552 65.633 37.832 64.449 37.16C63.265 36.456 62.241 35.512 61.377 34.328C60.513 33.112 60.081 31.608 60.081 29.816C60.081 27.48 60.657 25.48 61.809 23.816C62.961 22.12 64.561 20.84 66.609 19.976C68.689 19.08 71.057 18.632 73.713 18.632C76.113 18.632 78.241 19.016 80.097 19.784C81.953 20.52 83.393 21.592 84.417 23C85.473 24.408 86.001 26.072 86.001 27.992C86.001 28.504 85.985 28.888 85.953 29.144H75.825C75.857 28.984 75.873 28.76 75.873 28.472C75.873 27.704 75.633 27.112 75.153 26.696C74.673 26.248 74.017 26.024 73.185 26.024C72.321 26.024 71.617 26.248 71.073 26.696C70.561 27.112 70.305 27.704 70.305 28.472C70.305 29.304 70.705 30.024 71.505 30.632C72.337 31.208 73.617 31.896 75.345 32.696C77.201 33.56 78.721 34.376 79.905 35.144C81.121 35.88 82.161 36.872 83.025 38.12C83.889 39.368 84.321 40.904 84.321 42.728C84.321 44.744 83.777 46.568 82.689 48.2C81.601 49.8 80.049 51.064 78.033 51.992C76.017 52.888 73.633 53.336 70.881 53.336ZM102.601 19.16L96.6491 53H87.1931L93.1931 19.16H102.601Z" fill="white"/>
</svg>
