<svg width="131" height="38" viewBox="0 0 131 38" fill="none" xmlns="http://www.w3.org/2000/svg">
<path d="M0.792 17.552C0.792 15.888 1.152 14.408 1.872 13.112C2.592 11.8 3.592 10.784 4.872 10.064C6.168 9.328 7.632 8.96 9.264 8.96C11.264 8.96 12.976 9.488 14.4 10.544C15.824 11.6 16.776 13.04 17.256 14.864H12.744C12.408 14.16 11.928 13.624 11.304 13.256C10.696 12.888 10 12.704 9.216 12.704C7.952 12.704 6.928 13.144 6.144 14.024C5.36 14.904 4.968 16.08 4.968 17.552C4.968 19.024 5.36 20.2 6.144 21.08C6.928 21.96 7.952 22.4 9.216 22.4C10 22.4 10.696 22.216 11.304 21.848C11.928 21.48 12.408 20.944 12.744 20.24H17.256C16.776 22.064 15.824 23.504 14.4 24.56C12.976 25.6 11.264 26.12 9.264 26.12C7.632 26.12 6.168 25.76 4.872 25.04C3.592 24.304 2.592 23.288 1.872 21.992C1.152 20.696 0.792 19.216 0.792 17.552ZM32.9933 12.608V26H28.8893V24.176C28.4733 24.768 27.9053 25.248 27.1853 25.616C26.4813 25.968 25.6973 26.144 24.8333 26.144C23.8093 26.144 22.9053 25.92 22.1213 25.472C21.3373 25.008 20.7293 24.344 20.2973 23.48C19.8653 22.616 19.6493 21.6 19.6493 20.432V12.608H23.7293V19.88C23.7293 20.776 23.9613 21.472 24.4253 21.968C24.8893 22.464 25.5133 22.712 26.2973 22.712C27.0973 22.712 27.7293 22.464 28.1933 21.968C28.6573 21.472 28.8893 20.776 28.8893 19.88V12.608H32.9933ZM40.0451 14.84C40.5251 14.104 41.1251 13.528 41.8451 13.112C42.5651 12.68 43.3651 12.464 44.2451 12.464V16.808H43.1171C42.0931 16.808 41.3251 17.032 40.8131 17.48C40.3011 17.912 40.0451 18.68 40.0451 19.784V26H35.9411V12.608H40.0451V14.84ZM50.3108 14.84C50.7908 14.104 51.3908 13.528 52.1108 13.112C52.8308 12.68 53.6308 12.464 54.5108 12.464V16.808H53.3828C52.3588 16.808 51.5908 17.032 51.0788 17.48C50.5668 17.912 50.3108 18.68 50.3108 19.784V26H46.2068V12.608H50.3108V14.84ZM58.5364 11.216C57.8164 11.216 57.2244 11.008 56.7604 10.592C56.3124 10.16 56.0884 9.632 56.0884 9.008C56.0884 8.368 56.3124 7.84 56.7604 7.424C57.2244 6.992 57.8164 6.776 58.5364 6.776C59.2404 6.776 59.8164 6.992 60.2644 7.424C60.7284 7.84 60.9604 8.368 60.9604 9.008C60.9604 9.632 60.7284 10.16 60.2644 10.592C59.8164 11.008 59.2404 11.216 58.5364 11.216ZM60.5764 12.608V26H56.4724V12.608H60.5764ZM62.7345 19.304C62.7345 17.912 63.0145 16.696 63.5745 15.656C64.1505 14.616 64.9425 13.816 65.9505 13.256C66.9745 12.696 68.1425 12.416 69.4545 12.416C71.1345 12.416 72.5345 12.856 73.6545 13.736C74.7905 14.616 75.5345 15.856 75.8865 17.456H71.5185C71.1505 16.432 70.4385 15.92 69.3825 15.92C68.6305 15.92 68.0305 16.216 67.5825 16.808C67.1345 17.384 66.9105 18.216 66.9105 19.304C66.9105 20.392 67.1345 21.232 67.5825 21.824C68.0305 22.4 68.6305 22.688 69.3825 22.688C70.4385 22.688 71.1505 22.176 71.5185 21.152H75.8865C75.5345 22.72 74.7905 23.952 73.6545 24.848C72.5185 25.744 71.1185 26.192 69.4545 26.192C68.1425 26.192 66.9745 25.912 65.9505 25.352C64.9425 24.792 64.1505 23.992 63.5745 22.952C63.0145 21.912 62.7345 20.696 62.7345 19.304ZM91.3058 12.608V26H87.2018V24.176C86.7858 24.768 86.2178 25.248 85.4978 25.616C84.7938 25.968 84.0098 26.144 83.1458 26.144C82.1218 26.144 81.2178 25.92 80.4338 25.472C79.6498 25.008 79.0418 24.344 78.6098 23.48C78.1778 22.616 77.9618 21.6 77.9618 20.432V12.608H82.0418V19.88C82.0418 20.776 82.2738 21.472 82.7378 21.968C83.2018 22.464 83.8258 22.712 84.6098 22.712C85.4098 22.712 86.0418 22.464 86.5058 21.968C86.9698 21.472 87.2018 20.776 87.2018 19.88V12.608H91.3058ZM98.3576 22.832H103.734V26H94.2536V9.152H98.3576V22.832ZM107.755 11.216C107.035 11.216 106.443 11.008 105.979 10.592C105.531 10.16 105.307 9.632 105.307 9.008C105.307 8.368 105.531 7.84 105.979 7.424C106.443 6.992 107.035 6.776 107.755 6.776C108.459 6.776 109.035 6.992 109.483 7.424C109.947 7.84 110.179 8.368 110.179 9.008C110.179 9.632 109.947 10.16 109.483 10.592C109.035 11.008 108.459 11.216 107.755 11.216ZM109.795 12.608V26H105.691V12.608H109.795ZM120.929 12.464C122.497 12.464 123.745 12.976 124.673 14C125.617 15.008 126.089 16.4 126.089 18.176V26H122.009V18.728C122.009 17.832 121.777 17.136 121.313 16.64C120.849 16.144 120.225 15.896 119.441 15.896C118.657 15.896 118.033 16.144 117.569 16.64C117.105 17.136 116.873 17.832 116.873 18.728V26H112.769V12.608H116.873V14.384C117.289 13.792 117.849 13.328 118.553 12.992C119.257 12.64 120.049 12.464 120.929 12.464Z" fill="white"/>
</svg>
