<svg width="409" height="263" viewBox="0 0 409 263" fill="none" xmlns="http://www.w3.org/2000/svg">
<path d="M132.424 8.248V20.008C132.424 21.64 131.952 22.912 131.008 23.824C130.064 24.72 128.8 25.168 127.216 25.168C125.616 25.168 124.32 24.704 123.328 23.776C122.352 22.848 121.864 21.552 121.864 19.888H125.224C125.24 20.608 125.408 21.168 125.728 21.568C126.064 21.968 126.544 22.168 127.168 22.168C127.776 22.168 128.24 21.976 128.56 21.592C128.88 21.208 129.04 20.68 129.04 20.008V8.248H132.424ZM141.84 18.304C141.84 16.96 142.104 15.768 142.632 14.728C143.176 13.688 143.904 12.888 144.816 12.328C145.744 11.768 146.776 11.488 147.912 11.488C148.904 11.488 149.768 11.688 150.504 12.088C151.256 12.488 151.856 12.992 152.304 13.6V11.704H155.688V25H152.304V23.056C151.872 23.68 151.272 24.2 150.504 24.616C149.752 25.016 148.88 25.216 147.888 25.216C146.768 25.216 145.744 24.928 144.816 24.352C143.904 23.776 143.176 22.968 142.632 21.928C142.104 20.872 141.84 19.664 141.84 18.304ZM152.304 18.352C152.304 17.536 152.144 16.84 151.824 16.264C151.504 15.672 151.072 15.224 150.528 14.92C149.984 14.6 149.4 14.44 148.776 14.44C148.152 14.44 147.576 14.592 147.048 14.896C146.52 15.2 146.088 15.648 145.752 16.24C145.432 16.816 145.272 17.504 145.272 18.304C145.272 19.104 145.432 19.808 145.752 20.416C146.088 21.008 146.52 21.464 147.048 21.784C147.592 22.104 148.168 22.264 148.776 22.264C149.4 22.264 149.984 22.112 150.528 21.808C151.072 21.488 151.504 21.04 151.824 20.464C152.144 19.872 152.304 19.168 152.304 18.352ZM170.873 21.904L174.233 11.704H177.809L172.889 25H168.809L163.913 11.704H167.513L170.873 21.904ZM185.192 18.304C185.192 16.96 185.456 15.768 185.984 14.728C186.528 13.688 187.256 12.888 188.168 12.328C189.096 11.768 190.128 11.488 191.264 11.488C192.256 11.488 193.12 11.688 193.856 12.088C194.608 12.488 195.208 12.992 195.656 13.6V11.704H199.04V25H195.656V23.056C195.224 23.68 194.624 24.2 193.856 24.616C193.104 25.016 192.232 25.216 191.24 25.216C190.12 25.216 189.096 24.928 188.168 24.352C187.256 23.776 186.528 22.968 185.984 21.928C185.456 20.872 185.192 19.664 185.192 18.304ZM195.656 18.352C195.656 17.536 195.496 16.84 195.176 16.264C194.856 15.672 194.424 15.224 193.88 14.92C193.336 14.6 192.752 14.44 192.128 14.44C191.504 14.44 190.928 14.592 190.4 14.896C189.872 15.2 189.44 15.648 189.104 16.24C188.784 16.816 188.624 17.504 188.624 18.304C188.624 19.104 188.784 19.808 189.104 20.416C189.44 21.008 189.872 21.464 190.4 21.784C190.944 22.104 191.52 22.264 192.128 22.264C192.752 22.264 193.336 22.112 193.88 21.808C194.424 21.488 194.856 21.04 195.176 20.464C195.496 19.872 195.656 19.168 195.656 18.352ZM214.466 25.168C213.298 25.168 212.242 24.968 211.298 24.568C210.37 24.168 209.634 23.592 209.09 22.84C208.546 22.088 208.266 21.2 208.25 20.176H211.85C211.898 20.864 212.138 21.408 212.57 21.808C213.018 22.208 213.626 22.408 214.394 22.408C215.178 22.408 215.794 22.224 216.242 21.856C216.69 21.472 216.914 20.976 216.914 20.368C216.914 19.872 216.762 19.464 216.458 19.144C216.154 18.824 215.77 18.576 215.306 18.4C214.858 18.208 214.234 18 213.434 17.776C212.346 17.456 211.458 17.144 210.77 16.84C210.098 16.52 209.514 16.048 209.018 15.424C208.538 14.784 208.298 13.936 208.298 12.88C208.298 11.888 208.546 11.024 209.042 10.288C209.538 9.552 210.234 8.992 211.13 8.608C212.026 8.208 213.05 8.008 214.202 8.008C215.93 8.008 217.33 8.432 218.402 9.28C219.49 10.112 220.09 11.28 220.202 12.784H216.506C216.474 12.208 216.226 11.736 215.762 11.368C215.314 10.984 214.714 10.792 213.962 10.792C213.306 10.792 212.778 10.96 212.378 11.296C211.994 11.632 211.802 12.12 211.802 12.76C211.802 13.208 211.946 13.584 212.234 13.888C212.538 14.176 212.906 14.416 213.338 14.608C213.786 14.784 214.41 14.992 215.21 15.232C216.298 15.552 217.186 15.872 217.874 16.192C218.562 16.512 219.154 16.992 219.65 17.632C220.146 18.272 220.394 19.112 220.394 20.152C220.394 21.048 220.162 21.88 219.698 22.648C219.234 23.416 218.554 24.032 217.658 24.496C216.762 24.944 215.698 25.168 214.466 25.168ZM228.803 18.352C228.803 16.976 229.083 15.776 229.643 14.752C230.203 13.712 230.979 12.912 231.971 12.352C232.963 11.776 234.099 11.488 235.379 11.488C237.027 11.488 238.387 11.904 239.459 12.736C240.547 13.552 241.275 14.704 241.643 16.192H238.019C237.827 15.616 237.499 15.168 237.035 14.848C236.587 14.512 236.027 14.344 235.355 14.344C234.395 14.344 233.635 14.696 233.075 15.4C232.515 16.088 232.235 17.072 232.235 18.352C232.235 19.616 232.515 20.6 233.075 21.304C233.635 21.992 234.395 22.336 235.355 22.336C236.715 22.336 237.603 21.728 238.019 20.512H241.643C241.275 21.952 240.547 23.096 239.459 23.944C238.371 24.792 237.011 25.216 235.379 25.216C234.099 25.216 232.963 24.936 231.971 24.376C230.979 23.8 230.203 23 229.643 21.976C229.083 20.936 228.803 19.728 228.803 18.352ZM253.824 13.768C254.256 13.064 254.816 12.512 255.504 12.112C256.208 11.712 257.008 11.512 257.904 11.512V15.04H257.016C255.96 15.04 255.16 15.288 254.616 15.784C254.088 16.28 253.824 17.144 253.824 18.376V25H250.464V11.704H253.824V13.768ZM268.232 10.12C267.64 10.12 267.144 9.936 266.744 9.568C266.36 9.184 266.168 8.712 266.168 8.152C266.168 7.592 266.36 7.128 266.744 6.76C267.144 6.376 267.64 6.184 268.232 6.184C268.824 6.184 269.312 6.376 269.696 6.76C270.096 7.128 270.296 7.592 270.296 8.152C270.296 8.712 270.096 9.184 269.696 9.568C269.312 9.936 268.824 10.12 268.232 10.12ZM269.888 11.704V25H266.528V11.704H269.888ZM282.927 13.624C283.359 13.016 283.951 12.512 284.703 12.112C285.471 11.696 286.343 11.488 287.319 11.488C288.455 11.488 289.479 11.768 290.391 12.328C291.319 12.888 292.047 13.688 292.575 14.728C293.119 15.752 293.391 16.944 293.391 18.304C293.391 19.664 293.119 20.872 292.575 21.928C292.047 22.968 291.319 23.776 290.391 24.352C289.479 24.928 288.455 25.216 287.319 25.216C286.343 25.216 285.479 25.016 284.727 24.616C283.991 24.216 283.391 23.712 282.927 23.104V31.336H279.567V11.704H282.927V13.624ZM289.959 18.304C289.959 17.504 289.791 16.816 289.455 16.24C289.135 15.648 288.703 15.2 288.159 14.896C287.631 14.592 287.055 14.44 286.431 14.44C285.823 14.44 285.247 14.6 284.703 14.92C284.175 15.224 283.743 15.672 283.407 16.264C283.087 16.856 282.927 17.552 282.927 18.352C282.927 19.152 283.087 19.848 283.407 20.44C283.743 21.032 284.175 21.488 284.703 21.808C285.247 22.112 285.823 22.264 286.431 22.264C287.055 22.264 287.631 22.104 288.159 21.784C288.703 21.464 289.135 21.008 289.455 20.416C289.791 19.824 289.959 19.12 289.959 18.304ZM306.105 14.464V20.896C306.105 21.344 306.209 21.672 306.417 21.88C306.641 22.072 307.009 22.168 307.521 22.168H309.081V25H306.969C304.137 25 302.721 23.624 302.721 20.872V14.464H301.137V11.704H302.721V8.416H306.105V11.704H309.081V14.464H306.105Z" fill="#EDF7FA"/>
<path d="M323.664 58.436V71H321.144V65.654H315.762V71H313.242V58.436H315.762V63.602H321.144V58.436H323.664ZM339.464 58.436V60.47H336.116V71H333.596V60.47H330.248V58.436H339.464ZM359.771 58.436V71H357.251V62.828L353.885 71H351.977L348.593 62.828V71H346.073V58.436H348.935L352.931 67.778L356.927 58.436H359.771ZM369.552 69.002H373.692V71H367.032V58.436H369.552V69.002Z" fill="#EDF7FA"/>
<path d="M224.092 80.252C224.092 80.7747 223.966 81.2647 223.714 81.722C223.471 82.1793 223.084 82.548 222.552 82.828C222.029 83.108 221.367 83.248 220.564 83.248H218.926V87H216.966V77.228H220.564C221.32 77.228 221.964 77.3587 222.496 77.62C223.028 77.8813 223.425 78.2407 223.686 78.698C223.957 79.1553 224.092 79.6733 224.092 80.252ZM220.48 81.666C221.021 81.666 221.423 81.5447 221.684 81.302C221.945 81.05 222.076 80.7 222.076 80.252C222.076 79.3 221.544 78.824 220.48 78.824H218.926V81.666H220.48ZM237.3 77.228V87H235.34V82.842H231.154V87H229.194V77.228H231.154V81.246H235.34V77.228H237.3ZM250.065 80.252C250.065 80.7747 249.939 81.2647 249.687 81.722C249.444 82.1793 249.057 82.548 248.525 82.828C248.002 83.108 247.339 83.248 246.537 83.248H244.899V87H242.939V77.228H246.537C247.293 77.228 247.937 77.3587 248.469 77.62C249.001 77.8813 249.397 78.2407 249.659 78.698C249.929 79.1553 250.065 79.6733 250.065 80.252ZM246.453 81.666C246.994 81.666 247.395 81.5447 247.657 81.302C247.918 81.05 248.049 80.7 248.049 80.252C248.049 79.3 247.517 78.824 246.453 78.824H244.899V81.666H246.453Z" fill="#EDF7FA"/>
<path d="M102.404 205.324C102.404 205.996 102.242 206.626 101.918 207.214C101.606 207.802 101.108 208.276 100.424 208.636C99.752 208.996 98.9 209.176 97.868 209.176H95.762V214H93.242V201.436H97.868C98.84 201.436 99.668 201.604 100.352 201.94C101.036 202.276 101.546 202.738 101.882 203.326C102.23 203.914 102.404 204.58 102.404 205.324ZM97.76 207.142C98.456 207.142 98.972 206.986 99.308 206.674C99.644 206.35 99.812 205.9 99.812 205.324C99.812 204.1 99.128 203.488 97.76 203.488H95.762V207.142H97.76ZM118.503 204.028L112.329 218.716H109.647L111.807 213.748L107.811 204.028H110.637L113.211 210.994L115.821 204.028H118.503ZM127.566 206.098V210.922C127.566 211.258 127.644 211.504 127.8 211.66C127.968 211.804 128.244 211.876 128.628 211.876H129.798V214H128.214C126.09 214 125.028 212.968 125.028 210.904V206.098H123.84V204.028H125.028V201.562H127.566V204.028H129.798V206.098H127.566ZM141.996 203.884C142.752 203.884 143.424 204.052 144.012 204.388C144.6 204.712 145.056 205.198 145.38 205.846C145.716 206.482 145.884 207.25 145.884 208.15V214H143.364V208.492C143.364 207.7 143.166 207.094 142.77 206.674C142.374 206.242 141.834 206.026 141.15 206.026C140.454 206.026 139.902 206.242 139.494 206.674C139.098 207.094 138.9 207.7 138.9 208.492V214H136.38V200.68H138.9V205.27C139.224 204.838 139.656 204.502 140.196 204.262C140.736 204.01 141.336 203.884 141.996 203.884ZM157.479 214.162C156.519 214.162 155.655 213.952 154.887 213.532C154.119 213.1 153.513 212.494 153.069 211.714C152.637 210.934 152.421 210.034 152.421 209.014C152.421 207.994 152.643 207.094 153.087 206.314C153.543 205.534 154.161 204.934 154.941 204.514C155.721 204.082 156.591 203.866 157.551 203.866C158.511 203.866 159.381 204.082 160.161 204.514C160.941 204.934 161.553 205.534 161.997 206.314C162.453 207.094 162.681 207.994 162.681 209.014C162.681 210.034 162.447 210.934 161.979 211.714C161.523 212.494 160.899 213.1 160.107 213.532C159.327 213.952 158.451 214.162 157.479 214.162ZM157.479 211.966C157.935 211.966 158.361 211.858 158.757 211.642C159.165 211.414 159.489 211.078 159.729 210.634C159.969 210.19 160.089 209.65 160.089 209.014C160.089 208.066 159.837 207.34 159.333 206.836C158.841 206.32 158.235 206.062 157.515 206.062C156.795 206.062 156.189 206.32 155.697 206.836C155.217 207.34 154.977 208.066 154.977 209.014C154.977 209.962 155.211 210.694 155.679 211.21C156.159 211.714 156.759 211.966 157.479 211.966ZM174.825 203.884C176.013 203.884 176.973 204.262 177.705 205.018C178.437 205.762 178.803 206.806 178.803 208.15V214H176.283V208.492C176.283 207.7 176.085 207.094 175.689 206.674C175.293 206.242 174.753 206.026 174.069 206.026C173.373 206.026 172.821 206.242 172.413 206.674C172.017 207.094 171.819 207.7 171.819 208.492V214H169.299V204.028H171.819V205.27C172.155 204.838 172.581 204.502 173.097 204.262C173.625 204.01 174.201 203.884 174.825 203.884Z" fill="#EDF7FA"/>
<path d="M74 79.248V81.96H67.016V86.256H72.368V88.92H67.016V96H63.656V79.248H74ZM86.1026 78.24V96H82.7426V78.24H86.1026ZM108.334 82.704V96H104.95V94.32C104.518 94.896 103.95 95.352 103.246 95.688C102.558 96.008 101.806 96.168 100.99 96.168C99.9503 96.168 99.0303 95.952 98.2303 95.52C97.4303 95.072 96.7983 94.424 96.3343 93.576C95.8863 92.712 95.6623 91.688 95.6623 90.504V82.704H99.0223V90.024C99.0223 91.08 99.2863 91.896 99.8143 92.472C100.342 93.032 101.062 93.312 101.974 93.312C102.902 93.312 103.63 93.032 104.158 92.472C104.686 91.896 104.95 91.08 104.95 90.024V82.704H108.334ZM121.921 85.464V91.896C121.921 92.344 122.025 92.672 122.233 92.88C122.457 93.072 122.825 93.168 123.337 93.168H124.897V96H122.785C119.953 96 118.537 94.624 118.537 91.872V85.464H116.953V82.704H118.537V79.416H121.921V82.704H124.897V85.464H121.921ZM137.586 85.464V91.896C137.586 92.344 137.69 92.672 137.898 92.88C138.122 93.072 138.49 93.168 139.002 93.168H140.562V96H138.45C135.618 96 134.202 94.624 134.202 91.872V85.464H132.618V82.704H134.202V79.416H137.586V82.704H140.562V85.464H137.586ZM161.699 89.064C161.699 89.544 161.667 89.976 161.603 90.36H151.883C151.963 91.32 152.299 92.072 152.891 92.616C153.483 93.16 154.211 93.432 155.075 93.432C156.323 93.432 157.211 92.896 157.739 91.824H161.363C160.979 93.104 160.243 94.16 159.155 94.992C158.067 95.808 156.731 96.216 155.147 96.216C153.867 96.216 152.715 95.936 151.691 95.376C150.683 94.8 149.891 93.992 149.315 92.952C148.755 91.912 148.475 90.712 148.475 89.352C148.475 87.976 148.755 86.768 149.315 85.728C149.875 84.688 150.659 83.888 151.667 83.328C152.675 82.768 153.835 82.488 155.147 82.488C156.411 82.488 157.539 82.76 158.531 83.304C159.539 83.848 160.315 84.624 160.859 85.632C161.419 86.624 161.699 87.768 161.699 89.064ZM158.219 88.104C158.203 87.24 157.891 86.552 157.283 86.04C156.675 85.512 155.931 85.248 155.051 85.248C154.219 85.248 153.515 85.504 152.939 86.016C152.379 86.512 152.035 87.208 151.907 88.104H158.219ZM173.871 84.768C174.303 84.064 174.863 83.512 175.551 83.112C176.255 82.712 177.055 82.512 177.951 82.512V86.04H177.063C176.007 86.04 175.207 86.288 174.663 86.784C174.135 87.28 173.871 88.144 173.871 89.376V96H170.511V82.704H173.871V84.768Z" fill="#EDF7FA"/>
<path d="M302.112 145L296.016 137.536V145H292.656V128.248H296.016V135.76L302.112 128.248H306.168L299.256 136.552L306.36 145H302.112ZM320.834 145.216C319.554 145.216 318.402 144.936 317.378 144.376C316.354 143.8 315.546 142.992 314.954 141.952C314.378 140.912 314.09 139.712 314.09 138.352C314.09 136.992 314.386 135.792 314.978 134.752C315.586 133.712 316.41 132.912 317.45 132.352C318.49 131.776 319.65 131.488 320.93 131.488C322.21 131.488 323.37 131.776 324.41 132.352C325.45 132.912 326.266 133.712 326.858 134.752C327.466 135.792 327.77 136.992 327.77 138.352C327.77 139.712 327.458 140.912 326.834 141.952C326.226 142.992 325.394 143.8 324.338 144.376C323.298 144.936 322.13 145.216 320.834 145.216ZM320.834 142.288C321.442 142.288 322.01 142.144 322.538 141.856C323.082 141.552 323.514 141.104 323.834 140.512C324.154 139.92 324.314 139.2 324.314 138.352C324.314 137.088 323.978 136.12 323.306 135.448C322.65 134.76 321.842 134.416 320.882 134.416C319.922 134.416 319.114 134.76 318.458 135.448C317.818 136.12 317.498 137.088 317.498 138.352C317.498 139.616 317.81 140.592 318.434 141.28C319.074 141.952 319.874 142.288 320.834 142.288ZM340.507 134.464V140.896C340.507 141.344 340.611 141.672 340.819 141.88C341.043 142.072 341.411 142.168 341.923 142.168H343.483V145H341.371C338.539 145 337.123 143.624 337.123 140.872V134.464H335.539V131.704H337.123V128.416H340.507V131.704H343.483V134.464H340.507ZM355.619 127.24V145H352.259V127.24H355.619ZM367.003 130.12C366.411 130.12 365.915 129.936 365.515 129.568C365.131 129.184 364.939 128.712 364.939 128.152C364.939 127.592 365.131 127.128 365.515 126.76C365.915 126.376 366.411 126.184 367.003 126.184C367.595 126.184 368.083 126.376 368.467 126.76C368.867 127.128 369.067 127.592 369.067 128.152C369.067 128.712 368.867 129.184 368.467 129.568C368.083 129.936 367.595 130.12 367.003 130.12ZM368.659 131.704V145H365.299V131.704H368.659ZM385.707 131.512C387.291 131.512 388.571 132.016 389.547 133.024C390.523 134.016 391.011 135.408 391.011 137.2V145H387.651V137.656C387.651 136.6 387.387 135.792 386.859 135.232C386.331 134.656 385.611 134.368 384.699 134.368C383.771 134.368 383.035 134.656 382.491 135.232C381.963 135.792 381.699 136.6 381.699 137.656V145H378.339V131.704H381.699V133.36C382.147 132.784 382.715 132.336 383.403 132.016C384.107 131.68 384.875 131.512 385.707 131.512Z" fill="#EDF7FA"/>
<path d="M19.92 131.248V148H16.56V137.104L12.072 148H9.528L5.016 137.104V148H1.656V131.248H5.472L10.8 143.704L16.128 131.248H19.92ZM42.3219 134.704L34.0899 154.288H30.5139L33.3939 147.664L28.0659 134.704H31.8339L35.2659 143.992L38.7459 134.704H42.3219ZM56.2772 148.168C55.1092 148.168 54.0532 147.968 53.1092 147.568C52.1812 147.168 51.4452 146.592 50.9012 145.84C50.3572 145.088 50.0772 144.2 50.0612 143.176H53.6612C53.7092 143.864 53.9492 144.408 54.3812 144.808C54.8292 145.208 55.4372 145.408 56.2052 145.408C56.9892 145.408 57.6052 145.224 58.0532 144.856C58.5012 144.472 58.7252 143.976 58.7252 143.368C58.7252 142.872 58.5732 142.464 58.2692 142.144C57.9652 141.824 57.5812 141.576 57.1172 141.4C56.6692 141.208 56.0452 141 55.2452 140.776C54.1572 140.456 53.2692 140.144 52.5812 139.84C51.9092 139.52 51.3252 139.048 50.8292 138.424C50.3492 137.784 50.1092 136.936 50.1092 135.88C50.1092 134.888 50.3572 134.024 50.8532 133.288C51.3492 132.552 52.0452 131.992 52.9412 131.608C53.8372 131.208 54.8612 131.008 56.0132 131.008C57.7412 131.008 59.1412 131.432 60.2132 132.28C61.3012 133.112 61.9012 134.28 62.0132 135.784H58.3172C58.2852 135.208 58.0372 134.736 57.5732 134.368C57.1252 133.984 56.5252 133.792 55.7732 133.792C55.1172 133.792 54.5892 133.96 54.1892 134.296C53.8052 134.632 53.6132 135.12 53.6132 135.76C53.6132 136.208 53.7572 136.584 54.0452 136.888C54.3492 137.176 54.7172 137.416 55.1492 137.608C55.5972 137.784 56.2212 137.992 57.0212 138.232C58.1092 138.552 58.9972 138.872 59.6852 139.192C60.3732 139.512 60.9652 139.992 61.4612 140.632C61.9572 141.272 62.2052 142.112 62.2052 143.152C62.2052 144.048 61.9732 144.88 61.5092 145.648C61.0452 146.416 60.3652 147.032 59.4692 147.496C58.5732 147.944 57.5092 148.168 56.2772 148.168ZM83.9582 150.952L81.4142 147.904C80.7102 148.08 79.9902 148.168 79.2542 148.168C77.6862 148.168 76.2462 147.8 74.9342 147.064C73.6222 146.328 72.5822 145.312 71.8142 144.016C71.0462 142.704 70.6622 141.224 70.6622 139.576C70.6622 137.944 71.0462 136.48 71.8142 135.184C72.5822 133.872 73.6222 132.848 74.9342 132.112C76.2462 131.376 77.6862 131.008 79.2542 131.008C80.8382 131.008 82.2782 131.376 83.5742 132.112C84.8862 132.848 85.9182 133.872 86.6702 135.184C87.4382 136.48 87.8222 137.944 87.8222 139.576C87.8222 141.064 87.5022 142.424 86.8622 143.656C86.2382 144.872 85.3822 145.864 84.2942 146.632L88.1342 150.952H83.9582ZM74.1182 139.576C74.1182 140.696 74.3342 141.68 74.7662 142.528C75.1982 143.376 75.7982 144.032 76.5662 144.496C77.3502 144.944 78.2462 145.168 79.2542 145.168C80.2622 145.168 81.1502 144.944 81.9182 144.496C82.6862 144.032 83.2862 143.376 83.7182 142.528C84.1502 141.68 84.3662 140.696 84.3662 139.576C84.3662 138.456 84.1502 137.48 83.7182 136.648C83.2862 135.8 82.6862 135.152 81.9182 134.704C81.1502 134.256 80.2622 134.032 79.2542 134.032C78.2462 134.032 77.3502 134.256 76.5662 134.704C75.7982 135.152 75.1982 135.8 74.7662 136.648C74.3342 137.48 74.1182 138.456 74.1182 139.576ZM100.089 145.336H105.609V148H96.7288V131.248H100.089V145.336Z" fill="#EDF7FA"/>
<path d="M150.26 162.4C150.26 159.928 150.812 157.72 151.916 155.776C153.044 153.808 154.568 152.284 156.488 151.204C158.432 150.1 160.604 149.548 163.004 149.548C165.812 149.548 168.272 150.268 170.384 151.708C172.496 153.148 173.972 155.14 174.812 157.684H169.016C168.44 156.484 167.624 155.584 166.568 154.984C165.536 154.384 164.336 154.084 162.968 154.084C161.504 154.084 160.196 154.432 159.044 155.128C157.916 155.8 157.028 156.76 156.38 158.008C155.756 159.256 155.444 160.72 155.444 162.4C155.444 164.056 155.756 165.52 156.38 166.792C157.028 168.04 157.916 169.012 159.044 169.708C160.196 170.38 161.504 170.716 162.968 170.716C164.336 170.716 165.536 170.416 166.568 169.816C167.624 169.192 168.44 168.28 169.016 167.08H174.812C173.972 169.648 172.496 171.652 170.384 173.092C168.296 174.508 165.836 175.216 163.004 175.216C160.604 175.216 158.432 174.676 156.488 173.596C154.568 172.492 153.044 170.968 151.916 169.024C150.812 167.08 150.26 164.872 150.26 162.4ZM197.333 175.252C195.581 175.252 193.997 174.952 192.581 174.352C191.189 173.752 190.085 172.888 189.269 171.76C188.453 170.632 188.033 169.3 188.009 167.764H193.409C193.481 168.796 193.841 169.612 194.489 170.212C195.161 170.812 196.073 171.112 197.225 171.112C198.401 171.112 199.325 170.836 199.997 170.284C200.669 169.708 201.005 168.964 201.005 168.052C201.005 167.308 200.777 166.696 200.321 166.216C199.865 165.736 199.289 165.364 198.593 165.1C197.921 164.812 196.985 164.5 195.785 164.164C194.153 163.684 192.821 163.216 191.789 162.76C190.781 162.28 189.905 161.572 189.161 160.636C188.441 159.676 188.081 158.404 188.081 156.82C188.081 155.332 188.453 154.036 189.197 152.932C189.941 151.828 190.985 150.988 192.329 150.412C193.673 149.812 195.209 149.512 196.937 149.512C199.529 149.512 201.629 150.148 203.237 151.42C204.869 152.668 205.769 154.42 205.937 156.676H200.393C200.345 155.812 199.973 155.104 199.277 154.552C198.605 153.976 197.705 153.688 196.577 153.688C195.593 153.688 194.801 153.94 194.201 154.444C193.625 154.948 193.337 155.68 193.337 156.64C193.337 157.312 193.553 157.876 193.985 158.332C194.441 158.764 194.993 159.124 195.641 159.412C196.313 159.676 197.249 159.988 198.449 160.348C200.081 160.828 201.413 161.308 202.445 161.788C203.477 162.268 204.365 162.988 205.109 163.948C205.853 164.908 206.225 166.168 206.225 167.728C206.225 169.072 205.877 170.32 205.181 171.472C204.485 172.624 203.465 173.548 202.121 174.244C200.777 174.916 199.181 175.252 197.333 175.252ZM228.81 175.252C227.058 175.252 225.474 174.952 224.058 174.352C222.666 173.752 221.562 172.888 220.746 171.76C219.93 170.632 219.51 169.3 219.486 167.764H224.886C224.958 168.796 225.318 169.612 225.966 170.212C226.638 170.812 227.55 171.112 228.702 171.112C229.878 171.112 230.802 170.836 231.474 170.284C232.146 169.708 232.482 168.964 232.482 168.052C232.482 167.308 232.254 166.696 231.798 166.216C231.342 165.736 230.766 165.364 230.07 165.1C229.398 164.812 228.462 164.5 227.262 164.164C225.63 163.684 224.298 163.216 223.266 162.76C222.258 162.28 221.382 161.572 220.638 160.636C219.918 159.676 219.558 158.404 219.558 156.82C219.558 155.332 219.93 154.036 220.674 152.932C221.418 151.828 222.462 150.988 223.806 150.412C225.15 149.812 226.686 149.512 228.414 149.512C231.006 149.512 233.106 150.148 234.714 151.42C236.346 152.668 237.246 154.42 237.414 156.676H231.87C231.822 155.812 231.45 155.104 230.754 154.552C230.082 153.976 229.182 153.688 228.054 153.688C227.07 153.688 226.278 153.94 225.678 154.444C225.102 154.948 224.814 155.68 224.814 156.64C224.814 157.312 225.03 157.876 225.462 158.332C225.918 158.764 226.47 159.124 227.118 159.412C227.79 159.676 228.726 159.988 229.926 160.348C231.558 160.828 232.89 161.308 233.922 161.788C234.954 162.268 235.842 162.988 236.586 163.948C237.33 164.908 237.702 166.168 237.702 167.728C237.702 169.072 237.354 170.32 236.658 171.472C235.962 172.624 234.942 173.548 233.598 174.244C232.254 174.916 230.658 175.252 228.81 175.252Z" fill="#EDF7FA"/>
<path d="M245 224.872V228.94H234.524V235.384H242.552V239.38H234.524V250H229.484V224.872H245ZM260.67 227.68C259.782 227.68 259.038 227.404 258.438 226.852C257.862 226.276 257.574 225.568 257.574 224.728C257.574 223.888 257.862 223.192 258.438 222.64C259.038 222.064 259.782 221.776 260.67 221.776C261.558 221.776 262.29 222.064 262.866 222.64C263.466 223.192 263.766 223.888 263.766 224.728C263.766 225.568 263.466 226.276 262.866 226.852C262.29 227.404 261.558 227.68 260.67 227.68ZM263.154 230.056V250H258.114V230.056H263.154ZM285.485 229.732C286.973 229.732 288.281 230.032 289.409 230.632C290.537 231.208 291.425 231.964 292.073 232.9V230.056H297.149V250.144C297.149 251.992 296.777 253.636 296.033 255.076C295.289 256.54 294.173 257.692 292.685 258.532C291.197 259.396 289.397 259.828 287.285 259.828C284.453 259.828 282.125 259.168 280.301 257.848C278.501 256.528 277.481 254.728 277.241 252.448H282.245C282.509 253.36 283.073 254.08 283.937 254.608C284.825 255.16 285.893 255.436 287.141 255.436C288.605 255.436 289.793 254.992 290.705 254.104C291.617 253.24 292.073 251.92 292.073 250.144V247.048C291.425 247.984 290.525 248.764 289.373 249.388C288.245 250.012 286.949 250.324 285.485 250.324C283.805 250.324 282.269 249.892 280.877 249.028C279.485 248.164 278.381 246.952 277.565 245.392C276.773 243.808 276.377 241.996 276.377 239.956C276.377 237.94 276.773 236.152 277.565 234.592C278.381 233.032 279.473 231.832 280.841 230.992C282.233 230.152 283.781 229.732 285.485 229.732ZM292.073 240.028C292.073 238.804 291.833 237.76 291.353 236.896C290.873 236.008 290.225 235.336 289.409 234.88C288.593 234.4 287.717 234.16 286.781 234.16C285.845 234.16 284.981 234.388 284.189 234.844C283.397 235.3 282.749 235.972 282.245 236.86C281.765 237.724 281.525 238.756 281.525 239.956C281.525 241.156 281.765 242.212 282.245 243.124C282.749 244.012 283.397 244.696 284.189 245.176C285.005 245.656 285.869 245.896 286.781 245.896C287.717 245.896 288.593 245.668 289.409 245.212C290.225 244.732 290.873 244.06 291.353 243.196C291.833 242.308 292.073 241.252 292.073 240.028ZM336.38 229.768C338.828 229.768 340.796 230.524 342.284 232.036C343.796 233.524 344.552 235.612 344.552 238.3V250H339.512V238.984C339.512 237.424 339.116 236.236 338.324 235.42C337.532 234.58 336.452 234.16 335.084 234.16C333.716 234.16 332.624 234.58 331.808 235.42C331.016 236.236 330.62 237.424 330.62 238.984V250H325.58V238.984C325.58 237.424 325.184 236.236 324.392 235.42C323.6 234.58 322.52 234.16 321.152 234.16C319.76 234.16 318.656 234.58 317.84 235.42C317.048 236.236 316.652 237.424 316.652 238.984V250H311.612V230.056H316.652V232.468C317.3 231.628 318.128 230.968 319.136 230.488C320.168 230.008 321.296 229.768 322.52 229.768C324.08 229.768 325.472 230.104 326.696 230.776C327.92 231.424 328.868 232.36 329.54 233.584C330.188 232.432 331.124 231.508 332.348 230.812C333.596 230.116 334.94 229.768 336.38 229.768ZM357.578 239.956C357.578 237.94 357.974 236.152 358.766 234.592C359.582 233.032 360.674 231.832 362.042 230.992C363.434 230.152 364.982 229.732 366.686 229.732C368.174 229.732 369.47 230.032 370.574 230.632C371.702 231.232 372.602 231.988 373.274 232.9V230.056H378.35V250H373.274V247.084C372.626 248.02 371.726 248.8 370.574 249.424C369.446 250.024 368.138 250.324 366.65 250.324C364.97 250.324 363.434 249.892 362.042 249.028C360.674 248.164 359.582 246.952 358.766 245.392C357.974 243.808 357.578 241.996 357.578 239.956ZM373.274 240.028C373.274 238.804 373.034 237.76 372.554 236.896C372.074 236.008 371.426 235.336 370.61 234.88C369.794 234.4 368.918 234.16 367.982 234.16C367.046 234.16 366.182 234.388 365.39 234.844C364.598 235.3 363.95 235.972 363.446 236.86C362.966 237.724 362.726 238.756 362.726 239.956C362.726 241.156 362.966 242.212 363.446 243.124C363.95 244.012 364.598 244.696 365.39 245.176C366.206 245.656 367.07 245.896 367.982 245.896C368.918 245.896 369.794 245.668 370.61 245.212C371.426 244.732 372.074 244.06 372.554 243.196C373.034 242.308 373.274 241.252 373.274 240.028Z" fill="#EDF7FA"/>
</svg>
